#N canvas 0 22 1280 711 12;
#X obj 18 12 tgl 100 0 empty empty empty 17 7 0 10 -261234 -1 -1 1
1;
#X obj 37 660 dac~;
#X obj 150 160 metro 1176.47;
#X msg 150 200 open 0.wav \, 1;
#X obj 150 240 readsf~;
#X obj 150 400 *~ 0.3;
#X obj 250 160 metro 1153.85;
#X msg 250 200 open 1.wav \, 1;
#X obj 250 240 readsf~;
#X obj 250 400 *~ 0.3;
#X obj 350 160 metro 1132.08;
#X msg 350 200 open 2.wav \, 1;
#X obj 350 240 readsf~;
#X obj 350 400 *~ 0.3;
#X obj 450 160 metro 1111.11;
#X msg 450 200 open 3.wav \, 1;
#X obj 450 240 readsf~;
#X obj 450 400 *~ 0.3;
#X obj 550 160 metro 1090.91;
#X msg 550 200 open 4.wav \, 1;
#X obj 550 240 readsf~;
#X obj 550 400 *~ 0.3;
#X obj 650 160 metro 1071.43;
#X msg 650 200 open 5.wav \, 1;
#X obj 650 240 readsf~;
#X obj 650 400 *~ 0.3;
#X obj 750 160 metro 1052.63;
#X msg 750 200 open 6.wav \, 1;
#X obj 750 240 readsf~;
#X obj 750 400 *~ 0.3;
#X obj 850 160 metro 1034.48;
#X msg 850 200 open 7.wav \, 1;
#X obj 850 240 readsf~;
#X obj 850 400 *~ 0.3;
#X obj 950 160 metro 1016.95;
#X msg 950 200 open 8.wav \, 1;
#X obj 950 240 readsf~;
#X obj 950 400 *~ 0.3;
#X obj 1050 160 metro 1000;
#X msg 1050 200 open 9.wav \, 1;
#X obj 1050 240 readsf~;
#X obj 1050 400 *~ 0.3;
#X obj 1150 160 metro 983.607;
#X msg 1150 200 open 10.wav \, 1;
#X obj 1150 240 readsf~;
#X obj 1150 400 *~ 0.3;
#X obj 1250 160 metro 967.742;
#X msg 1250 200 open 11.wav \, 1;
#X obj 1250 240 readsf~;
#X obj 1250 400 *~ 0.3;
#X obj 1350 160 metro 952.381;
#X msg 1350 200 open 12.wav \, 1;
#X obj 1350 240 readsf~;
#X obj 1350 400 *~ 0.3;
#X obj 1450 160 metro 937.5;
#X msg 1450 200 open 13.wav \, 1;
#X obj 1450 240 readsf~;
#X obj 1450 400 *~ 0.3;
#X obj 1550 160 metro 923.077;
#X msg 1550 200 open 14.wav \, 1;
#X obj 1550 240 readsf~;
#X obj 1550 400 *~ 0.3;
#X connect 0 0 2 0;
#X connect 0 0 6 0;
#X connect 0 0 10 0;
#X connect 0 0 14 0;
#X connect 0 0 18 0;
#X connect 0 0 22 0;
#X connect 0 0 26 0;
#X connect 0 0 30 0;
#X connect 0 0 34 0;
#X connect 0 0 38 0;
#X connect 0 0 42 0;
#X connect 0 0 46 0;
#X connect 0 0 50 0;
#X connect 0 0 54 0;
#X connect 0 0 58 0;
#X connect 2 0 3 0;
#X connect 3 0 4 0;
#X connect 4 0 5 0;
#X connect 5 0 1 0;
#X connect 5 0 1 1;
#X connect 6 0 7 0;
#X connect 7 0 8 0;
#X connect 8 0 9 0;
#X connect 9 0 1 0;
#X connect 9 0 1 1;
#X connect 10 0 11 0;
#X connect 11 0 12 0;
#X connect 12 0 13 0;
#X connect 13 0 1 0;
#X connect 13 0 1 1;
#X connect 14 0 15 0;
#X connect 15 0 16 0;
#X connect 16 0 17 0;
#X connect 17 0 1 0;
#X connect 17 0 1 1;
#X connect 18 0 19 0;
#X connect 19 0 20 0;
#X connect 20 0 21 0;
#X connect 21 0 1 0;
#X connect 21 0 1 1;
#X connect 22 0 23 0;
#X connect 23 0 24 0;
#X connect 24 0 25 0;
#X connect 25 0 1 0;
#X connect 25 0 1 1;
#X connect 26 0 27 0;
#X connect 27 0 28 0;
#X connect 28 0 29 0;
#X connect 29 0 1 0;
#X connect 29 0 1 1;
#X connect 30 0 31 0;
#X connect 31 0 32 0;
#X connect 32 0 33 0;
#X connect 33 0 1 0;
#X connect 33 0 1 1;
#X connect 34 0 35 0;
#X connect 35 0 36 0;
#X connect 36 0 37 0;
#X connect 37 0 1 0;
#X connect 37 0 1 1;
#X connect 38 0 39 0;
#X connect 39 0 40 0;
#X connect 40 0 41 0;
#X connect 41 0 1 0;
#X connect 41 0 1 1;
#X connect 42 0 43 0;
#X connect 43 0 44 0;
#X connect 44 0 45 0;
#X connect 45 0 1 0;
#X connect 45 0 1 1;
#X connect 46 0 47 0;
#X connect 47 0 48 0;
#X connect 48 0 49 0;
#X connect 49 0 1 0;
#X connect 49 0 1 1;
#X connect 50 0 51 0;
#X connect 51 0 52 0;
#X connect 52 0 53 0;
#X connect 53 0 1 0;
#X connect 53 0 1 1;
#X connect 54 0 55 0;
#X connect 55 0 56 0;
#X connect 56 0 57 0;
#X connect 57 0 1 0;
#X connect 57 0 1 1;
#X connect 58 0 59 0;
#X connect 59 0 60 0;
#X connect 60 0 61 0;
#X connect 61 0 1 0;
#X connect 61 0 1 1;
